# xmcd
#
# Track frame offsets:
#	150
#	18606
#	32221
#	48266
#	61553
#	100007
#	118575
#	140201
#	156549
#	168675
#	181110
#	202312
#	218509
#	230924
#	245275
#	279048
#
# Disc length: 4049 seconds
#
# Revision: 1
# Processed by: cddbd v1.5.1PL0 Copyright (c) Steve Scherf et al.
# Submitted via: audiograbber 1.83.01
#
DISCID=e50fcf10
DTITLE=Various Artist - Ballads Cd 2
DYEAR=1900
DGENRE=
TTITLE0=The Booze Brothers - Where Are You Tonight
TTITLE1=Paul Young and The Q-Tips - Love Hurts
TTITLE2=Rare Earth Feat.Peter Rivera - I Know I'm Losing You
TTITLE3=The Yardbirds - Still I'm Sad
TTITLE4=Jimi Hendrix - Bleeding Heart
TTITLE5=Santana - With A Little Help From My Friends
TTITLE6=The Nice - Hang On To A Dream
TTITLE7=Badfinger - Baby Blue
TTITLE8=John Mayall - Lost And Gone
TTITLE9=The Troggs - Anyway That You Want Me
TTITLE10=Johnny Winter - Going Down Slow
TTITLE11=Rod Stewart - (Just A) Little Misunderstood
TTITLE12=Becker and Fagen - Barrytown
TTITLE13=Chicago - Does Anybody Really Know What Time It Is
TTITLE14=Tony Joe White - I Want You
TTITLE15=Ike and Tina Turner - All I Can Do Is Cry
EXTD=
EXTT0=
EXTT1=
EXTT2=
EXTT3=
EXTT4=
EXTT5=
EXTT6=
EXTT7=
EXTT8=
EXTT9=
EXTT10=
EXTT11=
EXTT12=
EXTT13=
EXTT14=
EXTT15=
PLAYORDER=
